<svg width="64" height="64" viewBox="0 0 64 64" fill="none" stroke="#ffffff" stroke-width="3" stroke-linecap="round" stroke-linejoin="round" xmlns="http://www.w3.org/2000/svg">
  <rect x="8" y="6" width="48" height="52" rx="4" />
  
  <line x1="18" y1="6" x2="18" y2="58" />
  <line x1="8" y1="16" x2="18" y2="16" />
  <line x1="8" y1="48" x2="18" y2="48" />

  <g transform="translate(4, 0)">
    <polygon points="32,20 42,26 42,38 32,44 22,38 22,26" />
    <polygon points="32,38 27,28 37,28" />
    <line x1="32" y1="20" x2="27" y2="28" />
    <line x1="32" y1="20" x2="37" y2="28" />
    <line x1="22" y1="26" x2="27" y2="28" />
    <line x1="42" y1="26" x2="37" y2="28" />
    <line x1="22" y1="38" x2="27" y2="28" />
    <line x1="42" y1="38" x2="37" y2="28" />
    <line x1="22" y1="38" x2="32" y2="38" />
    <line x1="42" y1="38" x2="32" y2="38" />
  </g>
</svg>
